<svg xmlns="http://www.w3.org/2000/svg" viewBox="0 0 1400 1800"><defs><linearGradient id="night" x2="1" y2="1"><stop stop-color="#172033"/><stop offset="1" stop-color="#431407"/></linearGradient><linearGradient id="warm"><stop stop-color="#fb923c"/><stop offset="1" stop-color="#c2410c"/></linearGradient><filter id="blur"><feGaussianBlur stdDeviation="32"/></filter></defs><rect width="1400" height="1800" fill="url(#night)"/><circle cx="1120" cy="280" r="270" fill="#f97316" opacity=".28" filter="url(#blur)"/><circle cx="280" cy="820" r="220" fill="#facc15" opacity=".13" filter="url(#blur)"/><rect x="140" y="180" width="1120" height="1120" rx="72" fill="#fff7ed" opacity=".98"/><rect x="220" y="270" width="960" height="330" rx="42" fill="url(#warm)"/><circle cx="940" cy="430" r="118" fill="#fff7ed"/><circle cx="940" cy="430" r="76" fill="#fdba74"/><circle cx="905" cy="400" r="23" fill="#16a34a"/><circle cx="980" cy="395" r="20" fill="#ef4444"/><path d="M310 350h310M310 410h240M310 470h170" stroke="#fff" stroke-width="30" stroke-linecap="round" opacity=".88"/><g><rect x="220" y="660" width="285" height="260" rx="36" fill="#fff" stroke="#fed7aa" stroke-width="8"/><circle cx="362" cy="755" r="66" fill="#fed7aa"/><path d="M290 855h145" stroke="#fb923c" stroke-width="24" stroke-linecap="round"/></g><g><rect x="557" y="660" width="285" height="260" rx="36" fill="#fff" stroke="#fde68a" stroke-width="8"/><circle cx="699" cy="755" r="66" fill="#facc15"/><path d="M627 855h145" stroke="#eab308" stroke-width="24" stroke-linecap="round"/></g><g><rect x="895" y="660" width="285" height="260" rx="36" fill="#fff" stroke="#bbf7d0" stroke-width="8"/><circle cx="1037" cy="755" r="66" fill="#4ade80"/><path d="M965 855h145" stroke="#16a34a" stroke-width="24" stroke-linecap="round"/></g><rect x="220" y="980" width="620" height="230" rx="38" fill="#fff" stroke="#e2e8f0" stroke-width="8"/><rect x="270" y="1035" width="350" height="30" rx="15" fill="#cbd5e1"/><rect x="270" y="1095" width="250" height="24" rx="12" fill="#e2e8f0"/><rect x="880" y="980" width="300" height="230" rx="38" fill="#0f172a"/><circle cx="1030" cy="1095" r="64" fill="#f97316"/><path d="M995 1095h70M1030 1060v70" stroke="#fff" stroke-width="18" stroke-linecap="round"/><ellipse cx="700" cy="1510" rx="430" ry="100" fill="#000" opacity=".2" filter="url(#blur)"/></svg>
