<svg xmlns="http://www.w3.org/2000/svg" viewBox="0 0 900 680"><defs><linearGradient id="bg" x2="1" y2="1"><stop stop-color="#fff7ed"/><stop offset="1" stop-color="#fed7aa"/></linearGradient></defs><rect x="35" y="35" width="830" height="610" rx="60" fill="url(#bg)"/><rect x="120" y="90" width="500" height="520" rx="38" fill="#fff"/><rect x="155" y="130" width="430" height="150" rx="25" fill="#0f172a"/><circle cx="505" cy="205" r="58" fill="#fb923c"/><circle cx="485" cy="190" r="18" fill="#16a34a"/><rect x="155" y="310" width="190" height="125" rx="20" fill="#ffedd5"/><circle cx="220" cy="370" r="42" fill="#fdba74"/><rect x="365" y="310" width="190" height="125" rx="20" fill="#fef3c7"/><circle cx="430" cy="370" r="42" fill="#facc15"/><rect x="155" y="465" width="400" height="95" rx="20" fill="#f8fafc"/><rect x="650" y="160" width="185" height="350" rx="32" fill="#0f172a"/><circle cx="742" cy="230" r="50" fill="#fff7ed"/><path d="M700 340h85M700 380h100M700 420h70" stroke="#fb923c" stroke-width="14" stroke-linecap="round"/><circle cx="735" cy="560" r="70" fill="#f97316"/><path d="M705 560h60M735 530v60" stroke="#fff" stroke-width="12" stroke-linecap="round"/></svg>
